<mxfile host="app.diagrams.net" modified="2021-10-05T12:29:49.940Z" agent="5.0 (Windows NT 10.0; Win64; x64) AppleWebKit/537.36 (KHTML, like Gecko) Chrome/94.0.4606.61 Safari/537.36" etag="DbNFNDKr6C9CZnYGWA3A" version="15.4.1" type="github">
  <diagram id="SI5E_4VV0KX8oZEEjQrd" name="Page-1">
    <mxGraphModel dx="1278" dy="556" grid="1" gridSize="10" guides="1" tooltips="1" connect="1" arrows="1" fold="1" page="1" pageScale="1" pageWidth="850" pageHeight="1100" math="0" shadow="0">
      <root>
        <mxCell id="0" />
        <mxCell id="1" parent="0" />
        <mxCell id="epdDaP73yQ1ehoebeea--79" value="" style="fillColor=#dddddd;rounded=0;strokeColor=none;" vertex="1" parent="1">
          <mxGeometry y="250" width="840" height="30" as="geometry" />
        </mxCell>
        <mxCell id="epdDaP73yQ1ehoebeea--80" value="Register" style="shape=mxgraph.infographic.ribbonSimple;notch1=0;notch2=10;notch=0;html=1;fillColor=#10739E;strokeColor=none;shadow=0;fontSize=17;fontColor=#FFFFFF;align=left;spacingLeft=10;fontStyle=1;" vertex="1" parent="1">
          <mxGeometry x="40" y="240" width="120" height="50" as="geometry" />
        </mxCell>
        <mxCell id="epdDaP73yQ1ehoebeea--81" value="Post Job" style="shape=mxgraph.infographic.ribbonSimple;notch1=0;notch2=10;notch=0;html=1;fillColor=#F2931E;strokeColor=none;shadow=0;fontSize=17;fontColor=#FFFFFF;align=left;spacingLeft=10;fontStyle=1;" vertex="1" parent="1">
          <mxGeometry x="200" y="240" width="120" height="50" as="geometry" />
        </mxCell>
        <mxCell id="epdDaP73yQ1ehoebeea--82" value="Application" style="shape=mxgraph.infographic.ribbonSimple;notch1=0;notch2=10;notch=0;html=1;fillColor=#AE4132;strokeColor=none;shadow=0;fontSize=17;fontColor=#FFFFFF;align=left;spacingLeft=10;fontStyle=1;" vertex="1" parent="1">
          <mxGeometry x="360" y="240" width="120" height="50" as="geometry" />
        </mxCell>
        <mxCell id="epdDaP73yQ1ehoebeea--83" value="Close" style="shape=mxgraph.infographic.ribbonSimple;notch1=0;notch2=10;notch=0;html=1;fillColor=#23445D;strokeColor=none;shadow=0;fontSize=17;fontColor=#FFFFFF;align=left;spacingLeft=10;fontStyle=1;" vertex="1" parent="1">
          <mxGeometry x="520" y="240" width="120" height="50" as="geometry" />
        </mxCell>
        <mxCell id="epdDaP73yQ1ehoebeea--84" value="Hire Expat" style="shape=mxgraph.infographic.ribbonSimple;notch1=0;notch2=10;notch=0;html=1;fillColor=#12AAB5;strokeColor=none;shadow=0;fontSize=17;fontColor=#FFFFFF;align=left;spacingLeft=10;fontStyle=1;" vertex="1" parent="1">
          <mxGeometry x="680" y="240" width="120" height="50" as="geometry" />
        </mxCell>
        <mxCell id="epdDaP73yQ1ehoebeea--85" value="&lt;font color=&quot;#10739e&quot;&gt;&lt;b&gt;New employer registration.&lt;br&gt;&lt;/b&gt;&lt;/font&gt;&lt;br&gt;Use HRA registration page to manage employer" style="rounded=1;strokeColor=none;fillColor=#DDDDDD;align=center;arcSize=12;verticalAlign=top;whiteSpace=wrap;html=1;fontSize=12;" vertex="1" parent="1">
          <mxGeometry y="160" width="200" height="70" as="geometry" />
        </mxCell>
        <mxCell id="epdDaP73yQ1ehoebeea--86" value="&lt;font&gt;&lt;font color=&quot;#f2931e&quot;&gt;&lt;b&gt;New Posting&lt;/b&gt;&lt;/font&gt;&lt;br&gt;&lt;br&gt;&lt;font size=&quot;1&quot; style=&quot;font-size: 10px&quot;&gt;Post new vacancies using HRA Job Posting form&lt;/font&gt;&lt;/font&gt;" style="rounded=1;strokeColor=none;fillColor=#DDDDDD;align=center;arcSize=12;verticalAlign=top;whiteSpace=wrap;html=1;fontSize=12;" vertex="1" parent="1">
          <mxGeometry x="160" y="300" width="200" height="70" as="geometry" />
        </mxCell>
        <mxCell id="epdDaP73yQ1ehoebeea--87" value="&lt;font&gt;&lt;font color=&quot;#ae4132&quot;&gt;&lt;b&gt;Matching&lt;/b&gt;&lt;/font&gt;&lt;br&gt;&lt;br&gt;&lt;font size=&quot;1&quot; style=&quot;font-size: 10px&quot;&gt;Process applications submitted by jobseeker&lt;/font&gt;&lt;/font&gt;" style="rounded=1;strokeColor=none;fillColor=#DDDDDD;align=center;arcSize=12;verticalAlign=top;whiteSpace=wrap;html=1;fontSize=12;" vertex="1" parent="1">
          <mxGeometry x="320" y="160" width="200" height="70" as="geometry" />
        </mxCell>
        <mxCell id="epdDaP73yQ1ehoebeea--88" value="&lt;font style=&quot;font-size: 10px&quot;&gt;&lt;font style=&quot;font-size: 12px&quot; color=&quot;#23445D&quot;&gt;&lt;b&gt;Close Vacancy&lt;/b&gt;&lt;/font&gt;&lt;br&gt;&lt;br&gt;&lt;font size=&quot;1&quot;&gt;Close vacancy posting for hiring expats&lt;/font&gt;&lt;/font&gt;" style="rounded=1;strokeColor=none;fillColor=#DDDDDD;align=center;arcSize=12;verticalAlign=top;whiteSpace=wrap;html=1;fontSize=12;" vertex="1" parent="1">
          <mxGeometry x="480" y="300" width="200" height="70" as="geometry" />
        </mxCell>
        <mxCell id="epdDaP73yQ1ehoebeea--89" value="&lt;font style=&quot;font-size: 10px&quot;&gt;&lt;font style=&quot;font-size: 12px&quot; color=&quot;#12AAB5&quot;&gt;&lt;b&gt;Expat Entry&lt;/b&gt;&lt;/font&gt;&lt;br&gt;&lt;br&gt;&lt;font size=&quot;1&quot;&gt;Enter Expat details&lt;/font&gt;&lt;/font&gt;" style="rounded=1;strokeColor=none;fillColor=#DDDDDD;align=center;arcSize=12;verticalAlign=top;whiteSpace=wrap;html=1;fontSize=12;" vertex="1" parent="1">
          <mxGeometry x="640" y="160" width="200" height="70" as="geometry" />
        </mxCell>
      </root>
    </mxGraphModel>
  </diagram>
</mxfile>
